<?xml version="1.0" encoding="UTF-8" standalone="no"?><svg xmlns="http://www.w3.org/2000/svg" xmlns:xlink="http://www.w3.org/1999/xlink" contentStyleType="text/css" height="1053px" preserveAspectRatio="none" style="width:504px;height:1053px;background:#FFFFFF;" version="1.1" viewBox="0 0 504 1053" width="504px" zoomAndPan="magnify"><defs/><g><!--MD5=[3fd616f346a44cd59a91eb10b19e157c]
class User--><g id="elem_User"><rect codeLine="1" fill="#F1F1F1" height="162.0781" id="User" rx="2.5" ry="2.5" style="stroke:#181818;stroke-width:0.5;" width="175" x="223" y="278"/><ellipse cx="290.25" cy="294" fill="#ADD1B2" rx="11" ry="11" style="stroke:#181818;stroke-width:1.0;"/><path d="M293.2188,299.6406 Q292.6406,299.9375 292,300.0781 Q291.3594,300.2344 290.6563,300.2344 Q288.1563,300.2344 286.8281,298.5938 Q285.5156,296.9375 285.5156,293.8125 Q285.5156,290.6875 286.8281,289.0313 Q288.1563,287.375 290.6563,287.375 Q291.3594,287.375 292,287.5313 Q292.6563,287.6875 293.2188,287.9844 L293.2188,290.7031 Q292.5938,290.125 292,289.8594 Q291.4063,289.5781 290.7813,289.5781 Q289.4375,289.5781 288.75,290.6563 Q288.0625,291.7188 288.0625,293.8125 Q288.0625,295.9063 288.75,296.9844 Q289.4375,298.0469 290.7813,298.0469 Q291.4063,298.0469 292,297.7813 Q292.5938,297.5 293.2188,296.9219 L293.2188,299.6406 Z " fill="#000000"/><text fill="#000000" font-family="sans-serif" font-size="14" lengthAdjust="spacing" textLength="32" x="310.75" y="298.8467">User</text><line style="stroke:#181818;stroke-width:0.5;" x1="224" x2="397" y1="310" y2="310"/><ellipse cx="234" cy="323.6484" fill="none" rx="3" ry="3" style="stroke:#038048;stroke-width:1.0;"/><text fill="#000000" font-family="sans-serif" font-size="14" lengthAdjust="spacing" textLength="38" x="243" y="326.9951">id: int</text><ellipse cx="234" cy="339.9453" fill="none" rx="3" ry="3" style="stroke:#038048;stroke-width:1.0;"/><text fill="#000000" font-family="sans-serif" font-size="14" lengthAdjust="spacing" textLength="84" x="243" y="343.292">email: string</text><ellipse cx="234" cy="356.2422" fill="none" rx="3" ry="3" style="stroke:#038048;stroke-width:1.0;"/><text fill="#000000" font-family="sans-serif" font-size="14" lengthAdjust="spacing" textLength="115" x="243" y="359.5889">password: string</text><ellipse cx="234" cy="372.5391" fill="none" rx="3" ry="3" style="stroke:#038048;stroke-width:1.0;"/><text fill="#000000" font-family="sans-serif" font-size="14" lengthAdjust="spacing" textLength="149" x="243" y="375.8857">created_at: DateTime</text><line style="stroke:#181818;stroke-width:0.5;" x1="224" x2="397" y1="383.1875" y2="383.1875"/><ellipse cx="234" cy="396.8359" fill="#84BE84" rx="3" ry="3" style="stroke:#038048;stroke-width:1.0;"/><text fill="#000000" font-family="sans-serif" font-size="14" lengthAdjust="spacing" textLength="102" x="243" y="400.1826">register(): bool</text><ellipse cx="234" cy="413.1328" fill="#84BE84" rx="3" ry="3" style="stroke:#038048;stroke-width:1.0;"/><text fill="#000000" font-family="sans-serif" font-size="14" lengthAdjust="spacing" textLength="82" x="243" y="416.4795">login(): bool</text><ellipse cx="234" cy="429.4297" fill="#84BE84" rx="3" ry="3" style="stroke:#038048;stroke-width:1.0;"/><text fill="#000000" font-family="sans-serif" font-size="14" lengthAdjust="spacing" textLength="138" x="243" y="432.7764">updateProfile(): void</text></g><!--MD5=[3f0ef310aaa84a542276992c5216544d]
class Car--><g id="elem_Car"><rect codeLine="12" fill="#F1F1F1" height="227.2656" id="Car" rx="2.5" ry="2.5" style="stroke:#181818;stroke-width:0.5;" width="175" x="153" y="500"/><ellipse cx="224.75" cy="516" fill="#ADD1B2" rx="11" ry="11" style="stroke:#181818;stroke-width:1.0;"/><path d="M227.7188,521.6406 Q227.1406,521.9375 226.5,522.0781 Q225.8594,522.2344 225.1563,522.2344 Q222.6563,522.2344 221.3281,520.5938 Q220.0156,518.9375 220.0156,515.8125 Q220.0156,512.6875 221.3281,511.0313 Q222.6563,509.375 225.1563,509.375 Q225.8594,509.375 226.5,509.5313 Q227.1563,509.6875 227.7188,509.9844 L227.7188,512.7031 Q227.0938,512.125 226.5,511.8594 Q225.9063,511.5781 225.2813,511.5781 Q223.9375,511.5781 223.25,512.6563 Q222.5625,513.7188 222.5625,515.8125 Q222.5625,517.9063 223.25,518.9844 Q223.9375,520.0469 225.2813,520.0469 Q225.9063,520.0469 226.5,519.7813 Q227.0938,519.5 227.7188,518.9219 L227.7188,521.6406 Z " fill="#000000"/><text fill="#000000" font-family="sans-serif" font-size="14" lengthAdjust="spacing" textLength="23" x="245.25" y="520.8467">Car</text><line style="stroke:#181818;stroke-width:0.5;" x1="154" x2="327" y1="532" y2="532"/><ellipse cx="164" cy="545.6484" fill="none" rx="3" ry="3" style="stroke:#038048;stroke-width:1.0;"/><text fill="#000000" font-family="sans-serif" font-size="14" lengthAdjust="spacing" textLength="38" x="173" y="548.9951">id: int</text><ellipse cx="164" cy="561.9453" fill="none" rx="3" ry="3" style="stroke:#038048;stroke-width:1.0;"/><text fill="#000000" font-family="sans-serif" font-size="14" lengthAdjust="spacing" textLength="76" x="173" y="565.292">user_id: int</text><ellipse cx="164" cy="578.2422" fill="none" rx="3" ry="3" style="stroke:#038048;stroke-width:1.0;"/><text fill="#000000" font-family="sans-serif" font-size="14" lengthAdjust="spacing" textLength="88" x="173" y="581.5889">brand: string</text><ellipse cx="164" cy="594.5391" fill="none" rx="3" ry="3" style="stroke:#038048;stroke-width:1.0;"/><text fill="#000000" font-family="sans-serif" font-size="14" lengthAdjust="spacing" textLength="91" x="173" y="597.8857">model: string</text><ellipse cx="164" cy="610.8359" fill="none" rx="3" ry="3" style="stroke:#038048;stroke-width:1.0;"/><text fill="#000000" font-family="sans-serif" font-size="14" lengthAdjust="spacing" textLength="55" x="173" y="614.1826">year: int</text><ellipse cx="164" cy="627.1328" fill="none" rx="3" ry="3" style="stroke:#038048;stroke-width:1.0;"/><text fill="#000000" font-family="sans-serif" font-size="14" lengthAdjust="spacing" textLength="80" x="173" y="630.4795">mileage: int</text><ellipse cx="164" cy="643.4297" fill="none" rx="3" ry="3" style="stroke:#038048;stroke-width:1.0;"/><text fill="#000000" font-family="sans-serif" font-size="14" lengthAdjust="spacing" textLength="149" x="173" y="646.7764">created_at: DateTime</text><line style="stroke:#181818;stroke-width:0.5;" x1="154" x2="327" y1="654.0781" y2="654.0781"/><ellipse cx="164" cy="667.7266" fill="#84BE84" rx="3" ry="3" style="stroke:#038048;stroke-width:1.0;"/><text fill="#000000" font-family="sans-serif" font-size="14" lengthAdjust="spacing" textLength="96" x="173" y="671.0732">addCar(): void</text><ellipse cx="164" cy="684.0234" fill="#84BE84" rx="3" ry="3" style="stroke:#038048;stroke-width:1.0;"/><text fill="#000000" font-family="sans-serif" font-size="14" lengthAdjust="spacing" textLength="119" x="173" y="687.3701">updateCar(): void</text><ellipse cx="164" cy="700.3203" fill="#84BE84" rx="3" ry="3" style="stroke:#038048;stroke-width:1.0;"/><text fill="#000000" font-family="sans-serif" font-size="14" lengthAdjust="spacing" textLength="114" x="173" y="703.667">deleteCar(): void</text><ellipse cx="164" cy="716.6172" fill="#84BE84" rx="3" ry="3" style="stroke:#038048;stroke-width:1.0;"/><text fill="#000000" font-family="sans-serif" font-size="14" lengthAdjust="spacing" textLength="135" x="173" y="719.9639">getCarDetails(): Car</text></g><!--MD5=[0b72f93f1e261292994a4d0c795fdf98]
class Maintenance--><g id="elem_Maintenance"><rect codeLine="27" fill="#F1F1F1" height="259.8594" id="Maintenance" rx="2.5" ry="2.5" style="stroke:#181818;stroke-width:0.5;" width="223" x="7" y="787"/><ellipse cx="69.75" cy="803" fill="#ADD1B2" rx="11" ry="11" style="stroke:#181818;stroke-width:1.0;"/><path d="M72.7188,808.6406 Q72.1406,808.9375 71.5,809.0781 Q70.8594,809.2344 70.1563,809.2344 Q67.6563,809.2344 66.3281,807.5938 Q65.0156,805.9375 65.0156,802.8125 Q65.0156,799.6875 66.3281,798.0313 Q67.6563,796.375 70.1563,796.375 Q70.8594,796.375 71.5,796.5313 Q72.1563,796.6875 72.7188,796.9844 L72.7188,799.7031 Q72.0938,799.125 71.5,798.8594 Q70.9063,798.5781 70.2813,798.5781 Q68.9375,798.5781 68.25,799.6563 Q67.5625,800.7188 67.5625,802.8125 Q67.5625,804.9063 68.25,805.9844 Q68.9375,807.0469 70.2813,807.0469 Q70.9063,807.0469 71.5,806.7813 Q72.0938,806.5 72.7188,805.9219 L72.7188,808.6406 Z " fill="#000000"/><text fill="#000000" font-family="sans-serif" font-size="14" lengthAdjust="spacing" textLength="89" x="90.25" y="807.8467">Maintenance</text><line style="stroke:#181818;stroke-width:0.5;" x1="8" x2="229" y1="819" y2="819"/><ellipse cx="18" cy="832.6484" fill="none" rx="3" ry="3" style="stroke:#038048;stroke-width:1.0;"/><text fill="#000000" font-family="sans-serif" font-size="14" lengthAdjust="spacing" textLength="38" x="27" y="835.9951">id: int</text><ellipse cx="18" cy="848.9453" fill="none" rx="3" ry="3" style="stroke:#038048;stroke-width:1.0;"/><text fill="#000000" font-family="sans-serif" font-size="14" lengthAdjust="spacing" textLength="66" x="27" y="852.292">car_id: int</text><ellipse cx="18" cy="865.2422" fill="none" rx="3" ry="3" style="stroke:#038048;stroke-width:1.0;"/><text fill="#000000" font-family="sans-serif" font-size="14" lengthAdjust="spacing" textLength="73" x="27" y="868.5889">date: Date</text><ellipse cx="18" cy="881.5391" fill="none" rx="3" ry="3" style="stroke:#038048;stroke-width:1.0;"/><text fill="#000000" font-family="sans-serif" font-size="14" lengthAdjust="spacing" textLength="80" x="27" y="884.8857">mileage: int</text><ellipse cx="18" cy="897.8359" fill="none" rx="3" ry="3" style="stroke:#038048;stroke-width:1.0;"/><text fill="#000000" font-family="sans-serif" font-size="14" lengthAdjust="spacing" textLength="108" x="27" y="901.1826">category: string</text><ellipse cx="18" cy="914.1328" fill="none" rx="3" ry="3" style="stroke:#038048;stroke-width:1.0;"/><text fill="#000000" font-family="sans-serif" font-size="14" lengthAdjust="spacing" textLength="136" x="27" y="917.4795">part_number: string</text><ellipse cx="18" cy="930.4297" fill="none" rx="3" ry="3" style="stroke:#038048;stroke-width:1.0;"/><text fill="#000000" font-family="sans-serif" font-size="14" lengthAdjust="spacing" textLength="87" x="27" y="933.7764">cost: double</text><ellipse cx="18" cy="946.7266" fill="none" rx="3" ry="3" style="stroke:#038048;stroke-width:1.0;"/><text fill="#000000" font-family="sans-serif" font-size="14" lengthAdjust="spacing" textLength="80" x="27" y="950.0732">note: string</text><ellipse cx="18" cy="963.0234" fill="none" rx="3" ry="3" style="stroke:#038048;stroke-width:1.0;"/><text fill="#000000" font-family="sans-serif" font-size="14" lengthAdjust="spacing" textLength="149" x="27" y="966.3701">created_at: DateTime</text><line style="stroke:#181818;stroke-width:0.5;" x1="8" x2="229" y1="973.6719" y2="973.6719"/><ellipse cx="18" cy="987.3203" fill="#84BE84" rx="3" ry="3" style="stroke:#038048;stroke-width:1.0;"/><text fill="#000000" font-family="sans-serif" font-size="14" lengthAdjust="spacing" textLength="162" x="27" y="990.667">addMaintenance(): void</text><ellipse cx="18" cy="1003.6172" fill="#84BE84" rx="3" ry="3" style="stroke:#038048;stroke-width:1.0;"/><text fill="#000000" font-family="sans-serif" font-size="14" lengthAdjust="spacing" textLength="185" x="27" y="1006.9639">updateMaintenance(): void</text><ellipse cx="18" cy="1019.9141" fill="#84BE84" rx="3" ry="3" style="stroke:#038048;stroke-width:1.0;"/><text fill="#000000" font-family="sans-serif" font-size="14" lengthAdjust="spacing" textLength="180" x="27" y="1023.2607">deleteMaintenance(): void</text><ellipse cx="18" cy="1036.2109" fill="#84BE84" rx="3" ry="3" style="stroke:#038048;stroke-width:1.0;"/><text fill="#000000" font-family="sans-serif" font-size="14" lengthAdjust="spacing" textLength="197" x="27" y="1039.5576">getMaintenanceHistory(): list</text></g><!--MD5=[50f39069cd7d30b8ca10557b7ad7ab8f]
class Reminder--><g id="elem_Reminder"><rect codeLine="44" fill="#F1F1F1" height="227.2656" id="Reminder" rx="2.5" ry="2.5" style="stroke:#181818;stroke-width:0.5;" width="232" x="265.5" y="803.5"/><ellipse cx="343.75" cy="819.5" fill="#ADD1B2" rx="11" ry="11" style="stroke:#181818;stroke-width:1.0;"/><path d="M346.7188,825.1406 Q346.1406,825.4375 345.5,825.5781 Q344.8594,825.7344 344.1563,825.7344 Q341.6563,825.7344 340.3281,824.0938 Q339.0156,822.4375 339.0156,819.3125 Q339.0156,816.1875 340.3281,814.5313 Q341.6563,812.875 344.1563,812.875 Q344.8594,812.875 345.5,813.0313 Q346.1563,813.1875 346.7188,813.4844 L346.7188,816.2031 Q346.0938,815.625 345.5,815.3594 Q344.9063,815.0781 344.2813,815.0781 Q342.9375,815.0781 342.25,816.1563 Q341.5625,817.2188 341.5625,819.3125 Q341.5625,821.4063 342.25,822.4844 Q342.9375,823.5469 344.2813,823.5469 Q344.9063,823.5469 345.5,823.2813 Q346.0938,823 346.7188,822.4219 L346.7188,825.1406 Z " fill="#000000"/><text fill="#000000" font-family="sans-serif" font-size="14" lengthAdjust="spacing" textLength="67" x="364.25" y="824.3467">Reminder</text><line style="stroke:#181818;stroke-width:0.5;" x1="266.5" x2="496.5" y1="835.5" y2="835.5"/><ellipse cx="276.5" cy="849.1484" fill="none" rx="3" ry="3" style="stroke:#038048;stroke-width:1.0;"/><text fill="#000000" font-family="sans-serif" font-size="14" lengthAdjust="spacing" textLength="38" x="285.5" y="852.4951">id: int</text><ellipse cx="276.5" cy="865.4453" fill="none" rx="3" ry="3" style="stroke:#038048;stroke-width:1.0;"/><text fill="#000000" font-family="sans-serif" font-size="14" lengthAdjust="spacing" textLength="76" x="285.5" y="868.792">user_id: int</text><ellipse cx="276.5" cy="881.7422" fill="none" rx="3" ry="3" style="stroke:#038048;stroke-width:1.0;"/><text fill="#000000" font-family="sans-serif" font-size="14" lengthAdjust="spacing" textLength="66" x="285.5" y="885.0889">car_id: int</text><ellipse cx="276.5" cy="898.0391" fill="none" rx="3" ry="3" style="stroke:#038048;stroke-width:1.0;"/><text fill="#000000" font-family="sans-serif" font-size="14" lengthAdjust="spacing" textLength="78" x="285.5" y="901.3857">type: string</text><ellipse cx="276.5" cy="914.3359" fill="none" rx="3" ry="3" style="stroke:#038048;stroke-width:1.0;"/><text fill="#000000" font-family="sans-serif" font-size="14" lengthAdjust="spacing" textLength="107" x="285.5" y="917.6826">due_date: Date</text><ellipse cx="276.5" cy="930.6328" fill="none" rx="3" ry="3" style="stroke:#038048;stroke-width:1.0;"/><text fill="#000000" font-family="sans-serif" font-size="14" lengthAdjust="spacing" textLength="117" x="285.5" y="933.9795">frequency: string</text><ellipse cx="276.5" cy="946.9297" fill="none" rx="3" ry="3" style="stroke:#038048;stroke-width:1.0;"/><text fill="#000000" font-family="sans-serif" font-size="14" lengthAdjust="spacing" textLength="149" x="285.5" y="950.2764">created_at: DateTime</text><line style="stroke:#181818;stroke-width:0.5;" x1="266.5" x2="496.5" y1="957.5781" y2="957.5781"/><ellipse cx="276.5" cy="971.2266" fill="#84BE84" rx="3" ry="3" style="stroke:#038048;stroke-width:1.0;"/><text fill="#000000" font-family="sans-serif" font-size="14" lengthAdjust="spacing" textLength="158" x="285.5" y="974.5732">createReminder(): void</text><ellipse cx="276.5" cy="987.5234" fill="#84BE84" rx="3" ry="3" style="stroke:#038048;stroke-width:1.0;"/><text fill="#000000" font-family="sans-serif" font-size="14" lengthAdjust="spacing" textLength="163" x="285.5" y="990.8701">updateReminder(): void</text><ellipse cx="276.5" cy="1003.8203" fill="#84BE84" rx="3" ry="3" style="stroke:#038048;stroke-width:1.0;"/><text fill="#000000" font-family="sans-serif" font-size="14" lengthAdjust="spacing" textLength="158" x="285.5" y="1007.167">deleteReminder(): void</text><ellipse cx="276.5" cy="1020.1172" fill="#84BE84" rx="3" ry="3" style="stroke:#038048;stroke-width:1.0;"/><text fill="#000000" font-family="sans-serif" font-size="14" lengthAdjust="spacing" textLength="206" x="285.5" y="1023.4639">getUpcomingReminders(): list</text></g><!--MD5=[847dd3bcae8f51064cf7debec0e3aeb7]
class ServiceStation--><g id="elem_ServiceStation"><rect codeLine="59" fill="#F1F1F1" height="210.9688" id="ServiceStation" rx="2.5" ry="2.5" style="stroke:#181818;stroke-width:0.5;" width="261" x="180" y="7"/><ellipse cx="257.25" cy="23" fill="#ADD1B2" rx="11" ry="11" style="stroke:#181818;stroke-width:1.0;"/><path d="M260.2188,28.6406 Q259.6406,28.9375 259,29.0781 Q258.3594,29.2344 257.6563,29.2344 Q255.1563,29.2344 253.8281,27.5938 Q252.5156,25.9375 252.5156,22.8125 Q252.5156,19.6875 253.8281,18.0313 Q255.1563,16.375 257.6563,16.375 Q258.3594,16.375 259,16.5313 Q259.6563,16.6875 260.2188,16.9844 L260.2188,19.7031 Q259.5938,19.125 259,18.8594 Q258.4063,18.5781 257.7813,18.5781 Q256.4375,18.5781 255.75,19.6563 Q255.0625,20.7188 255.0625,22.8125 Q255.0625,24.9063 255.75,25.9844 Q256.4375,27.0469 257.7813,27.0469 Q258.4063,27.0469 259,26.7813 Q259.5938,26.5 260.2188,25.9219 L260.2188,28.6406 Z " fill="#000000"/><text fill="#000000" font-family="sans-serif" font-size="14" lengthAdjust="spacing" textLength="98" x="277.75" y="27.8467">ServiceStation</text><line style="stroke:#181818;stroke-width:0.5;" x1="181" x2="440" y1="39" y2="39"/><ellipse cx="191" cy="52.6484" fill="none" rx="3" ry="3" style="stroke:#038048;stroke-width:1.0;"/><text fill="#000000" font-family="sans-serif" font-size="14" lengthAdjust="spacing" textLength="38" x="200" y="55.9951">id: int</text><ellipse cx="191" cy="68.9453" fill="none" rx="3" ry="3" style="stroke:#038048;stroke-width:1.0;"/><text fill="#000000" font-family="sans-serif" font-size="14" lengthAdjust="spacing" textLength="87" x="200" y="72.292">name: string</text><ellipse cx="191" cy="85.2422" fill="none" rx="3" ry="3" style="stroke:#038048;stroke-width:1.0;"/><text fill="#000000" font-family="sans-serif" font-size="14" lengthAdjust="spacing" textLength="104" x="200" y="88.5889">address: string</text><ellipse cx="191" cy="101.5391" fill="none" rx="3" ry="3" style="stroke:#038048;stroke-width:1.0;"/><text fill="#000000" font-family="sans-serif" font-size="14" lengthAdjust="spacing" textLength="108" x="200" y="104.8857">latitude: double</text><ellipse cx="191" cy="117.8359" fill="none" rx="3" ry="3" style="stroke:#038048;stroke-width:1.0;"/><text fill="#000000" font-family="sans-serif" font-size="14" lengthAdjust="spacing" textLength="122" x="200" y="121.1826">longitude: double</text><ellipse cx="191" cy="134.1328" fill="none" rx="3" ry="3" style="stroke:#038048;stroke-width:1.0;"/><text fill="#000000" font-family="sans-serif" font-size="14" lengthAdjust="spacing" textLength="96" x="200" y="137.4795">rating: double</text><ellipse cx="191" cy="150.4297" fill="none" rx="3" ry="3" style="stroke:#038048;stroke-width:1.0;"/><text fill="#000000" font-family="sans-serif" font-size="14" lengthAdjust="spacing" textLength="132" x="200" y="153.7764">contact_info: string</text><ellipse cx="191" cy="166.7266" fill="none" rx="3" ry="3" style="stroke:#038048;stroke-width:1.0;"/><text fill="#000000" font-family="sans-serif" font-size="14" lengthAdjust="spacing" textLength="149" x="200" y="170.0732">created_at: DateTime</text><line style="stroke:#181818;stroke-width:0.5;" x1="181" x2="440" y1="177.375" y2="177.375"/><ellipse cx="191" cy="191.0234" fill="#84BE84" rx="3" ry="3" style="stroke:#038048;stroke-width:1.0;"/><text fill="#000000" font-family="sans-serif" font-size="14" lengthAdjust="spacing" textLength="167" x="200" y="194.3701">findNearbyStations(): list</text><ellipse cx="191" cy="207.3203" fill="#84BE84" rx="3" ry="3" style="stroke:#038048;stroke-width:1.0;"/><text fill="#000000" font-family="sans-serif" font-size="14" lengthAdjust="spacing" textLength="235" x="200" y="210.667">getStationDetails(): ServiceStation</text></g><!--MD5=[506c379b934a9a84e01e6cdf01599aab]
link User to Car--><g id="link_User_Car"><path codeLine="73" d="M288.26,440.24 C283.46,457.53 278.3,476.16 273.2,494.55 " fill="none" id="User-to-Car" style="stroke:#181818;stroke-width:1.0;"/><polygon fill="#181818" points="271.76,499.73,278.0043,492.1136,273.0864,494.9092,270.2909,489.9913,271.76,499.73" style="stroke:#181818;stroke-width:1.0;"/><text fill="#000000" font-family="sans-serif" font-size="13" lengthAdjust="spacing" textLength="8" x="277.923" y="460.2127">1</text><text fill="#000000" font-family="sans-serif" font-size="13" lengthAdjust="spacing" textLength="7" x="266.5384" y="489.0238">*</text></g><!--MD5=[7154315c899047021ee3146f10497fd8]
link Car to Maintenance--><g id="link_Car_Maintenance"><path codeLine="74" d="M194.9,727.2 C187.63,745.16 180.05,763.89 172.61,782.29 " fill="none" id="Car-to-Maintenance" style="stroke:#181818;stroke-width:1.0;"/><polygon fill="#181818" points="170.72,786.95,177.8127,780.1167,172.6015,782.3175,170.4007,777.1063,170.72,786.95" style="stroke:#181818;stroke-width:1.0;"/><text fill="#000000" font-family="sans-serif" font-size="13" lengthAdjust="spacing" textLength="8" x="183.5675" y="747.4056">1</text><text fill="#000000" font-family="sans-serif" font-size="13" lengthAdjust="spacing" textLength="7" x="166.5366" y="776.0727">*</text></g><!--MD5=[599482826a64caedefb49ac4708dac39]
link Car to Reminder--><g id="link_Car_Reminder"><path codeLine="75" d="M293.2,727.2 C304.13,750.56 315.67,775.23 326.67,798.75 " fill="none" id="Car-to-Reminder" style="stroke:#181818;stroke-width:1.0;"/><polygon fill="#181818" points="328.86,803.44,328.6771,793.5928,326.7448,798.9094,321.4282,796.9772,328.86,803.44" style="stroke:#181818;stroke-width:1.0;"/><text fill="#000000" font-family="sans-serif" font-size="13" lengthAdjust="spacing" textLength="8" x="288.472" y="747.4056">1</text><text fill="#000000" font-family="sans-serif" font-size="13" lengthAdjust="spacing" textLength="7" x="318.0881" y="792.3687">*</text></g><!--MD5=[db3d45c735db5d92206c97ab66548b70]
link User to Reminder--><g id="link_User_Reminder"><path codeLine="76" d="M332.88,440.24 C337.65,459.67 342.24,480.48 345.5,500 C362.18,599.8 371.38,714.44 376.29,798.06 " fill="none" id="User-to-Reminder" style="stroke:#181818;stroke-width:1.0;"/><polygon fill="#181818" points="376.59,803.28,380.0438,794.0566,376.2905,798.289,372.0582,794.5357,376.59,803.28" style="stroke:#181818;stroke-width:1.0;"/><text fill="#000000" font-family="sans-serif" font-size="13" lengthAdjust="spacing" textLength="8" x="326.517" y="460.2127">1</text><text fill="#000000" font-family="sans-serif" font-size="13" lengthAdjust="spacing" textLength="7" x="369.0512" y="792.577">*</text></g><!--MD5=[de691670c0ab9311782f24788eb96570]
link ServiceStation to User--><g id="link_ServiceStation_User"><path codeLine="77" d="M310.5,218.25 C310.5,236.34 310.5,254.95 310.5,272.46 " fill="none" id="ServiceStation-to-User" style="stroke:#181818;stroke-width:1.0;"/><polygon fill="#181818" points="310.5,277.85,314.5,268.85,310.5,272.85,306.5,268.85,310.5,277.85" style="stroke:#181818;stroke-width:1.0;"/><text fill="#000000" font-family="sans-serif" font-size="13" lengthAdjust="spacing" textLength="23" x="286.7273" y="237.9314">0..*</text></g><!--MD5=[f7eee26215a3ad3615a0e8c5e09bcab4]
@startuml
class User {
  + id: int
  + email: string
  + password: string
  + created_at: DateTime

  + register(): bool
  + login(): bool
  + updateProfile(): void
}

class Car {
  + id: int
  + user_id: int
  + brand: string
  + model: string
  + year: int
  + mileage: int
  + created_at: DateTime

  + addCar(): void
  + updateCar(): void
  + deleteCar(): void
  + getCarDetails(): Car
}

class Maintenance {
  + id: int
  + car_id: int
  + date: Date
  + mileage: int
  + category: string
  + part_number: string
  + cost: double
  + note: string
  + created_at: DateTime

  + addMaintenance(): void
  + updateMaintenance(): void
  + deleteMaintenance(): void
  + getMaintenanceHistory(): list
}

class Reminder {
  + id: int
  + user_id: int
  + car_id: int
  + type: string
  + due_date: Date
  + frequency: string
  + created_at: DateTime

  + createReminder(): void
  + updateReminder(): void
  + deleteReminder(): void
  + getUpcomingReminders(): list
}

class ServiceStation {
  + id: int
  + name: string
  + address: string
  + latitude: double
  + longitude: double
  + rating: double
  + contact_info: string
  + created_at: DateTime

  + findNearbyStations(): list
  + getStationDetails(): ServiceStation
}

User "1" - -> "*" Car
Car "1" - -> "*" Maintenance
Car "1" - -> "*" Reminder
User "1" - -> "*" Reminder
ServiceStation "0..*" - -> User
@enduml

PlantUML version 1.2022.7(Mon Aug 22 17:01:30 UTC 2022)
(GPL source distribution)
Java Runtime: OpenJDK Runtime Environment
JVM: OpenJDK 64-Bit Server VM
Default Encoding: UTF-8
Language: en
Country: null
--></g></svg>